<?xml version="1.0" standalone="no"?>
<!DOCTYPE svg PUBLIC "-//W3C//DTD SVG 20010904//EN"
 "http://www.w3.org/TR/2001/REC-SVG-20010904/DTD/svg10.dtd">
<svg version="1.0" xmlns="http://www.w3.org/2000/svg"
 width="64.000000pt" height="64.000000pt" viewBox="0 0 64.000000 64.000000"
 preserveAspectRatio="xMidYMid meet">

<g transform="translate(0.000000,64.000000) scale(0.100000,-0.100000)"
fill="#000000" stroke="none">
<path d="M0 320 l0 -320 320 0 320 0 0 320 0 320 -320 0 -320 0 0 -320z m630
0 l0 -310 -310 0 -310 0 0 310 0 310 310 0 310 0 0 -310z"/>
<path d="M190 551 c-129 -69 -77 -267 70 -265 l49 0 53 -103 c55 -106 70 -119
101 -85 16 17 13 24 -46 118 l-64 100 20 26 c11 15 22 48 24 75 4 39 0 55 -19
83 -44 65 -122 87 -188 51z m115 -15 c38 -16 75 -68 75 -104 0 -38 -30 -92
-61 -107 -15 -8 -47 -15 -70 -15 -35 0 -47 6 -75 36 -27 28 -34 44 -34 75 0
53 24 97 63 114 41 18 60 18 102 1z"/>
</g>
</svg>
